<svg xmlns="http://www.w3.org/2000/svg" xmlns:xlink="http://www.w3.org/1999/xlink" width="22.148" height="25.691" viewBox="0 0 5.86 6.797"><defs><linearGradient id="a"><stop offset="0" style="stop-color:#030000;stop-opacity:1"/><stop offset="1" style="stop-color:#2a2b2b;stop-opacity:1"/></linearGradient><linearGradient xlink:href="#a" id="g" x1="5.545" x2="8.532" y1="22.643" y2="3.496" gradientTransform="translate(145.916 146.477)scale(.26458)" gradientUnits="userSpaceOnUse"/><linearGradient xlink:href="#a" id="c" x1="147.166" x2="149.424" y1="152.31" y2="147.425" gradientUnits="userSpaceOnUse"/><radialGradient xlink:href="#a" id="e" cx="9.125" cy="12.15" r="9.125" fx="9.125" fy="12.15" gradientTransform="matrix(1 0 0 1.3315 0 -4.028)" gradientUnits="userSpaceOnUse"/><radialGradient xlink:href="#a" id="f" cx="9.125" cy="12.15" r="9.125" fx="9.125" fy="12.15" gradientTransform="matrix(1 0 0 1.3315 0 -4.028)" gradientUnits="userSpaceOnUse"/><clipPath id="b"><path d="M0 0h18.25v24.3H0z" class="cls-2"/></clipPath><clipPath id="d"><path d="M0 0h18.25v24.3H0z" class="cls-2"/></clipPath></defs><path d="m149.906 146.477-3.67.312a.35.35 0 0 0-.32.378l.46 5.419a.35.35 0 0 0 .378.317l3.66-.312c.197-.01.25-.173.234-.37l-.364-5.424a.35.35 0 0 0-.378-.32m1.465.625-.923.009.353 5.256c.016.197-.037.36-.235.37l-3.165.27a.35.35 0 0 0 .343.266l3.672-.036a.35.35 0 0 0 .358-.352l-.05-5.435a.35.35 0 0 0-.353-.348z" style="fill:url(#c);fill-opacity:1;stroke:none;stroke-width:.1;stroke-miterlimit:4;stroke-dasharray:none;stroke-opacity:1" transform="translate(-145.914 -146.475)"/><g class="cls-8" clip-path="url(#d)" style="fill:url(#e);fill-opacity:1;stroke:#fff;stroke-width:.377953;stroke-miterlimit:4;stroke-dasharray:none;stroke-opacity:1" transform="translate(-10.312 1.061)scale(.26458)"><path d="m149.906 146.477-3.67.312a.35.35 0 0 0-.32.378l.46 5.419a.35.35 0 0 0 .378.317l3.66-.312c.197-.01.25-.173.234-.37l-.364-5.424a.35.35 0 0 0-.378-.32z" style="fill:url(#f);fill-opacity:1;stroke:#fff;stroke-width:.377953;stroke-miterlimit:4;stroke-dasharray:none;stroke-opacity:1"/><path d="m149.906 146.477-3.67.312a.35.35 0 0 0-.32.378l.46 5.419a.35.35 0 0 0 .378.317l3.66-.312c.197-.01.25-.173.234-.37l-.364-5.424a.35.35 0 0 0-.378-.32z" style="fill:url(#g);fill-opacity:1;stroke:#fff;stroke-width:.1;stroke-miterlimit:4;stroke-dasharray:none;stroke-opacity:1"/></g></svg>