<svg xmlns="http://www.w3.org/2000/svg" width="400" height="400" viewBox="0 0 400 400"><path fill="currentColor" fill-rule="evenodd" d="M9.308 86.167c-3.471 1.75-3.305-1.318-1.312 24.166 4.353 55.647.935 50.55 38.671 57.669 38.463 7.257 49.033 9.257 86.666 16.401 20.35 3.864 40 7.593 43.667 8.289a2156 2156 0 0 0 14.837 2.74l8.169 1.476 7.831-1.4c4.306-.77 30.18-5.643 57.496-10.83 27.317-5.186 62.867-11.933 79-14.992 32.304-6.125 35.296-6.966 40.232-11.309 4.045-3.559 3.871-2.436 7.439-48.044 1.993-25.484 2.159-22.416-1.312-24.166l-2.975-1.5H12.283zM.029 238.455c.024 51.619.201 64.358.922 66.38 1.424 3.988 4.282 7.179 7.971 8.897l3.411 1.588h375.334l3.411-1.588c3.689-1.718 6.547-4.909 7.971-8.897.721-2.022.898-14.757.922-66.357l.029-63.855-3.5 2.615c-9.708 7.253-9.448 7.19-96.167 23.435-3.666.687-12.966 2.445-20.666 3.907-54.171 10.286-78.31 14.753-79.713 14.749-.891-.002-17.521-3.016-36.954-6.697a44091 44091 0 0 0-53-10.01c-9.717-1.825-23.817-4.495-31.333-5.934-7.517-1.439-23.417-4.446-35.334-6.682-28.076-5.268-32.618-6.741-40.5-13.131L0 174.577z"/></svg>