<svg version="1.2" xmlns="http://www.w3.org/2000/svg" viewBox="0 0 586 586" width="586" height="586"><style></style><path fill-rule="evenodd" d="m152 4c71 9.3 84.1 10.4 125.4 11.3 46.1 0.9 74.6-1 130.2-8.5 33.3-4.5 43.7-5.5 64.7-6.4l15.6-0.7 2.6 2.5c1.5 1.6 2.5 3.7 2.5 5.3 0 3.3-2.7 57.1-3.4 68.1-3.6 57-11.8 298.9-12.5 372.6l-0.2 19.5-23.9 15.2c-13.1 8.4-53.5 34.5-89.7 58.1-36.2 23.5-67 43.2-68.5 43.7-2.4 0.9-5.1-0.6-33.6-19.5-40.2-26.5-90.8-59-122.8-79-14-8.7-26.3-16.5-27.4-17.3-2-1.4-2.1-2.5-2.7-30.5-0.8-31.1-1.7-63-4.1-131.6-2.8-80.4-7.3-203.8-7.8-213.1-0.5-9.2-3.4-82.3-3.4-86.7 0-1.2 1.1-3.3 2.4-4.6 3.4-3.4 23.1-2.8 56.6 1.6zm141 159c-0.3 0-4.8 5.5-10.1 12.1-28.4 35.9-62.2 65.9-74.3 65.9-7.2 0-21.2-8.7-37.5-23.4-6.7-6.1-8.1-6.9-7.6-4.9 3 13.9 11.1 58.4 14.4 78.7 4.8 29.7 5.1 30.4 13.9 34.4 56.2 25.5 140.3 26.1 199.3 1.4 12.3-5.2 12.1-4.8 16.4-31.7 4.3-26.4 9.4-54.9 12.9-71.4 1.3-6.3 2.4-11.9 2.4-12.4 0-0.6-4.4 2.9-9.7 7.7-14.9 13.3-28.6 21.6-35.8 21.6-11.8 0-46.1-30.5-73.9-65.6-5.4-6.9-10.1-12.5-10.4-12.4z"/></svg>