<svg xmlns="http://www.w3.org/2000/svg" width="400" height="400" viewBox="0 0 400 400"><path fill="currentColor" fill-rule="evenodd" d="M150 1.168q-2.334 1.164-3.865 4.252l-1.532 3.086 2.353 17.58c1.294 9.67 2.665 19.831 3.046 22.581.818 5.908 6.169 46.158 7.977 60 .695 5.316 1.883 14.316 2.642 20 3.514 26.323 8.196 61.505 10.691 80.333a65014 65014 0 0 0 11.999 90.042C184.79 310.065 186 319.59 186 320.209c0 1.683-14.698 1.537-54.667-.544-28.302-1.474-71.519-5.059-100.647-8.349-14.994-1.694-16.439-1.689-17.375.059-.838 1.566-.917 1.391 6.686 14.958 2.671 4.767 10.995 19.617 18.498 33 17.142 30.58 14.07 27.812 24.579 22.144 4.726-2.548 10.762-5.724 13.414-7.058l4.821-2.423 7.403 10.007c10.694 14.454 17.4 18.593 28.924 17.853 5.9-.378 6.581-.684 36.242-16.297 12.216-6.431 22.297-11.587 22.401-11.459s3.371 4.613 7.26 9.966c8.388 11.545 11.9 14.528 19.904 16.905 9.503 2.822 12.609 1.798 42.685-14.074 13.557-7.155 24.728-12.909 24.825-12.786.096.122 3.173 4.272 6.838 9.222 9.103 12.298 8.85 12.11 11.512 8.531 1.963-2.64 5.136-8.812 9.698-18.864 11.958-26.351 15.307-33.652 16.671-36.344 1.784-3.521-3.333-.682 63.18-35.053 21.219-10.965 22.652-11.987 20.474-14.612-1.22-1.47-1.103-1.492-28.043 5.292-49.548 12.479-89.611 20.832-124.616 25.983-13.263 1.952-25.89 3.401-26.272 3.015-.153-.154-4.19-21.731-8.97-47.948s-13.971-76.616-20.425-112-15.323-84.048-19.708-108.144C162.74 4.204 162.925 5.04 160.571 2.917 157.036-.271 153.914-.788 150 1.168m47.333 43.374c0 .297.911 3.222 2.023 6.5 8.415 24.785 13.048 50.706 15.036 84.125.245 4.125.703 7.5 1.016 7.5s4.208-.768 8.653-1.707c4.445-.938 8.231-1.557 8.414-1.374.701.701 5.098 16.025 8.536 29.747 8.096 32.318 12.773 65.101 14.704 103.057l.444 8.723 5.087-.895 12.421-2.188c9.63-1.698 51.693-9.107 75.666-13.328 40.106-7.06 37.467-4.883 24.012-19.806-24.667-27.358-45.907-49.981-53.09-56.545-22.421-20.491-43.401-35.664-65.953-47.699-7.531-4.019-7.301-3.875-6.867-4.309.178-.178 11.853-2.722 25.944-5.653 14.092-2.931 28.153-5.86 31.247-6.51 10.547-2.213 10.491-2.677-1.866-15.322-28.677-29.347-61.219-50.057-98.391-62.617-7.491-2.532-7.036-2.422-7.036-1.699M53.1 76.167c-.566.911-1.246 5.421-1.733 11.5-5.785 72.113-16.942 110.461-47.196 162.206-6.037 10.326-7.456 9.461 24.162 14.73 13.2 2.2 39.3 6.584 58 9.742l49.315 8.329c8.422 1.422 15.432 2.468 15.577 2.324s-.831-9.503-2.168-20.797a24488 24488 0 0 1-4.06-34.534c-1.82-15.632-5.523-47.394-8.006-68.667-.899-7.7-2.694-23.15-3.991-34.333-3.6-31.069-4.368-36.966-4.871-37.402-.528-.458-71.186-14.599-72.947-14.599-.633.001-1.57.676-2.082 1.501"/></svg>