<svg xmlns="http://www.w3.org/2000/svg" width="400" height="400" viewBox="0 0 400 400"><path fill="currentColor" fill-rule="evenodd" d="M319 1.031c-7.62 1.433-14.362 3.403-21.881 6.393l-6.548 2.604-5.119-1.616C259.812.32 242.646 7.747 222 35.864c-13.195 17.97-23.557 45.836-31.41 84.469-.82 4.034-1.596 7.466-1.724 7.628s-1.8-1.25-3.716-3.137c-10.954-10.789-26.924-3.026-22.485 10.93.967 3.043 94.204 97.072 99.194 100.037 12.377 7.356 24.318-9.214 14.336-19.892l-1.653-1.768 3.896-1.092c49.354-13.831 88.425-36.61 104.509-60.934 15.322-23.169 16.161-51.029 2.175-72.233l-2.334-3.539.985-5C392.094 29.084 359.269-6.542 319 1.031m25.019 79.136c10.374 7.021 7.979 34.713-4.423 51.16-17.446 23.135-46.83 42.988-79.487 53.704-11.568 3.796-10.993 3.855-16.442-1.688L239 178.596l3.118-5.896c20.471-38.714 51.387-74.233 76.051-87.375 11.871-6.325 21.335-8.214 25.85-5.158m-213.883 77.918c-9.142 4.525-9.602 13.396-1.155 22.258l3.742 3.926-8.316 2.185c-30.916 8.124-62.707 22.376-82.572 37.017-35.515 26.178-46.348 65.466-26.524 96.196l2.581 4-.991 5c-3.798 19.154 1.349 40.402 12.715 52.483 19.11 20.314 42.094 23.872 73.968 11.451l6.615-2.578 6.734 2.151c18.695 5.971 34.358 1.821 48.859-12.948 18.683-19.027 26.461-33.95 38.131-73.157.427-1.436.941-.895 5.062 5.333 19.317 29.196 53.582 44.214 90.443 39.641 12.331-1.529 18.059-3.296 21.04-6.489 8.603-9.213-.174-23.437-12.517-20.285-39.82 10.167-74.827-7.812-86.537-44.444-2.217-6.934-2.476-8.492-1.414-8.492.367 0 .667.245.667.544 0 1.116 4.828 2.79 8.049 2.79 8.702 0 14.719-8.308 11.713-16.172-1.697-4.443-97.651-100.088-101.429-101.104-3.864-1.039-5.645-.899-8.864.694m31.203 54.359c2.823 2.514 2.643 3.24-3.591 14.543-29.359 53.226-64.547 89.131-93.254 95.152-20.146 4.226-21.811-31.395-2.583-55.274 20.29-25.198 50.812-44.027 87.234-53.813 10.416-2.799 9.771-2.767 12.194-.608"/></svg>