<svg xmlns="http://www.w3.org/2000/svg" width="400" height="400" viewBox="0 0 400 400"><path fill="currentColor" fill-rule="evenodd" d="M17.667 64.138C12.126 66.074 8.398 71.278 8.451 77c.024 2.545 3.931 14.843 16.519 52 9.068 26.767 22.887 67.621 30.71 90.787s14.539 42.71 14.924 43.43c1.304 2.435 4.204 2.783 23.207 2.783 17.1 0 18.256.075 17.921 1.167-.197.641-2.496 10.316-5.109 21.5s-4.891 20.558-5.06 20.833c-.46.746-50.766.574-54.056-.185-5.61-1.294-8.973-4.132-16.407-13.843-11.414-14.91-15.567-17.089-24.1-12.641-10.111 5.27-9.462 12.853 2.417 28.248 11.486 14.886 17.848 19.925 29.916 23.693l5 1.561H349l5.333-1.816c10.137-3.452 35.819-25.015 40.316-33.85 4.721-9.274-1.335-19.429-11.586-19.429-5.296 0-6.826 1.075-20.063 14.092-15.514 15.257-13.183 14.337-36.333 14.337H309L306.916 301a3219 3219 0 0 1-4.868-20.667c-1.531-6.6-2.938-12.525-3.127-13.166-.311-1.056.281-1.167 6.201-1.168 33.189-.002 47.022-9.977 77.659-55.999 21.307-32.006 21.453-33.395 5.869-56.083-18.942-27.576-25.057-30.574-37.531-18.395-8.305 8.109-8.883 14.164-2.75 28.811 3.87 9.242 3.26 12.34-4.5 22.844-9.155 12.393-31.507 18.373-64.536 17.266-38.188-1.28-58.523-13.519-71.633-43.11C185.038 110.18 143.969 77.316 89 66.347c-14.476-2.889-64.92-4.451-71.333-2.209M271.651 267.5c.188.825 2.444 10.473 5.013 21.44s4.669 20.192 4.669 20.5-34.235.56-76.077.56h-76.078l.31-1.5c.59-2.858 9.249-40.172 9.592-41.333.324-1.101 4.059-1.167 66.286-1.167h65.942z"/></svg>